<?xml version="1.0" encoding="UTF-8" standalone="no"?>
<!DOCTYPE svg PUBLIC "-//W3C//DTD SVG 1.1//EN" "http://www.w3.org/Graphics/SVG/1.1/DTD/svg11.dtd">
<svg width="100%" height="100%" viewBox="0 0 711 76" version="1.1" xmlns="http://www.w3.org/2000/svg" xmlns:xlink="http://www.w3.org/1999/xlink" xml:space="preserve" xmlns:serif="http://www.serif.com/" style="fill-rule:evenodd;clip-rule:evenodd;stroke-linecap:round;stroke-linejoin:round;">
    <g transform="matrix(1,0,0,1,-700.764771,-778.149291)">
        <g transform="matrix(2.666667,0,0,2.666667,370.524771,-145.290709)">
            <g transform="matrix(0.95,0,0,1,14.6365,0)">
                <g transform="matrix(14,0,0,14,395.980973,364.664)">
                </g>
                <text x="292.73px" y="364.664px" style="font-family:'ArialMT', 'Arial', sans-serif;font-size:14px;fill:rgb(35,31,32);">T<tspan x="299.636px 307.41px " y="364.664px 364.664px ">ex</tspan>tbook Re<tspan x="370.335px " y="364.664px ">s</tspan>ale</text>
            </g>
        </g>
        <g transform="matrix(0,2.666667,2.666667,0,735.716771,817.544491)">
            <path d="M-4.298,-13.107L10.878,-13.107C12.287,-13.04 13.078,-11.9 13.107,-10.623L13.107,-4.298C1.203,-5.099 -4.298,-13.107 -4.298,-13.107" style="fill:rgb(248,194,0);fill-rule:nonzero;"/>
        </g>
        <g transform="matrix(2.666667,0,0,2.666667,773.066371,791.449291)">
            <path d="M0,21.241C-0.007,21.158 -0.106,20.732 -0.147,20.596C-5.694,1.324 -26.845,-1.625 -27.101,-1.66L-27.101,4.054C-27.089,4.46 -26.918,4.63 -26.7,4.821C-26.645,4.86 -26.59,4.9 -26.537,4.938C-19.042,10.522 -17.009,18.683 -16.499,21.711C-16.489,21.766 -16.479,21.819 -16.473,21.869C-16.349,22.418 -15.967,22.864 -15.318,22.901L-1.494,22.901C-0.605,22.87 0.083,22.151 0,21.241" style="fill:rgb(0,117,153);fill-rule:nonzero;"/>
        </g>
        <g transform="matrix(2.666667,0,0,2.666667,767.565571,838.393291)">
            <path d="M0,-22.489L-6.796,-22.489L-6.808,-13.274C-6.796,-12.946 -6.652,-12.654 -6.43,-12.445C-6.396,-12.42 -6.362,-12.391 -6.327,-12.361C-4.767,-11.063 0.182,-6.568 2.565,0L2.565,-19.924C2.565,-21.341 1.417,-22.489 0,-22.489" style="fill:rgb(130,150,0);fill-rule:nonzero;"/>
        </g>
        <g transform="matrix(2.666667,0,0,2.666667,707.603704,800.041291)">
            <path d="M0,-8.107C-2.474,-7.896 -2.551,-5.516 -2.551,-5.516C7.314,-4.178 12.965,-0.178 12.991,-0.162C13.169,-0.058 13.375,0.004 13.596,0.004C14.198,0.004 14.581,-0.246 14.61,-1.026L14.611,-6.898C14.608,-7.561 14.076,-8.097 13.416,-8.111L0,-8.107Z" style="fill:rgb(175,221,223);fill-rule:nonzero;"/>
        </g>
        <g transform="matrix(2.666667,0,0,2.666667,1010.371971,853.927958)">
            <path d="M0,-28.417C4.987,-28.417 8.097,-27.112 10.436,-24.877C10.591,-24.709 10.763,-24.528 10.95,-24.337C11.137,-24.143 11.231,-23.94 11.231,-23.723C11.231,-23.411 11.098,-23.171 10.833,-23.002C10.569,-22.834 10.263,-22.749 9.921,-22.749L7.441,-22.749C6.882,-22.749 6.476,-22.954 6.225,-23.363L5.806,-24.12C4.467,-25.893 2.943,-26.697 0.075,-26.697C-2.796,-26.697 -4.57,-25.645 -5.944,-23.542C-7.316,-21.44 -8.002,-19.27 -8.002,-14.801C-8.002,-10.282 -7.316,-6.983 -5.944,-4.904C-4.57,-2.825 -2.961,-1.784 -0.09,-1.784C2.779,-1.784 4.433,-2.27 5.806,-4.362C5.962,-4.579 6.11,-4.879 6.249,-5.264C6.389,-5.648 6.554,-6.019 6.741,-6.382C6.928,-6.743 7.138,-7.053 7.371,-7.319C7.605,-7.582 7.911,-7.716 8.285,-7.716L11.277,-7.716C11.653,-7.716 11.963,-7.62 12.214,-7.427C12.463,-7.234 12.588,-7.006 12.588,-6.743C12.588,-6.574 12.556,-6.441 12.492,-6.345C11.433,-4.207 9.793,-2.71 7.655,-1.694C4.084,0 -0.05,-0.029 -0.05,-0.029C-4.883,-0.029 -9.227,-1.327 -11.594,-3.551C-13.968,-5.773 -15.152,-9.302 -15.152,-14.133C-15.152,-16.536 -14.855,-18.616 -14.264,-20.37C-13.67,-22.124 -12.775,-23.572 -11.574,-24.715C-10.373,-25.857 -8.847,-26.643 -7.05,-27.307C-5.022,-28.057 -2.865,-28.368 -0.371,-28.417L0,-28.417Z" style="fill:rgb(0,117,153);fill-rule:nonzero;"/>
        </g>
        <g transform="matrix(2.666667,0,0,2.666667,1089.350904,853.927958)">
            <path d="M0,-28.417C4.99,-28.417 8.098,-27.112 10.436,-24.877C10.592,-24.709 10.764,-24.528 10.952,-24.337C11.138,-24.143 11.233,-23.94 11.233,-23.723C11.233,-23.411 11.099,-23.171 10.835,-23.002C10.569,-22.834 10.265,-22.749 9.922,-22.749L7.442,-22.749C6.882,-22.749 6.476,-22.954 6.227,-23.363L5.808,-24.12C4.468,-25.893 2.946,-26.697 0.077,-26.697C-2.793,-26.697 -4.568,-25.645 -5.944,-23.542C-7.315,-21.44 -8,-19.27 -8,-14.801C-8,-10.282 -7.315,-6.983 -5.944,-4.904C-4.568,-2.825 -2.961,-1.784 -0.091,-1.784C2.778,-1.784 4.434,-2.27 5.808,-4.362C5.962,-4.579 6.112,-4.879 6.25,-5.264C6.391,-5.648 6.553,-6.019 6.742,-6.382C6.929,-6.743 7.138,-7.053 7.371,-7.319C7.606,-7.582 7.912,-7.716 8.286,-7.716L11.277,-7.716C11.652,-7.716 11.962,-7.62 12.215,-7.427C12.462,-7.234 12.59,-7.006 12.59,-6.743C12.59,-6.574 12.558,-6.441 12.493,-6.345C11.435,-4.207 9.795,-2.71 7.655,-1.694C4.085,0 -0.05,-0.029 -0.05,-0.029C-4.883,-0.029 -9.226,-1.327 -11.594,-3.551C-13.968,-5.773 -15.151,-9.302 -15.151,-14.133C-15.151,-16.536 -14.855,-18.616 -14.262,-20.37C-13.67,-22.124 -12.775,-23.572 -11.573,-24.715C-10.372,-25.857 -8.846,-26.643 -7.047,-27.307C-5.021,-28.057 -2.864,-28.368 -0.37,-28.417L0,-28.417Z" style="fill:rgb(0,117,153);fill-rule:nonzero;"/>
        </g>
        <g transform="matrix(2.666667,0,0,2.666667,800.604504,852.318091)">
            <path d="M0,-27.377L6.991,-27.377L24.804,-4.533L24.8,-27.361L27.743,-27.365L27.743,0L20.755,0L2.937,-22.848L2.914,0L0,0L0,-27.377Z" style="fill:rgb(0,117,153);fill-rule:nonzero;"/>
        </g>
        <g transform="matrix(2.666667,0,0,2.666667,941.434371,819.775691)">
            <path d="M0,-2.932C2.221,-3.419 3.872,-4.295 4.954,-5.191C6.036,-6.087 6.576,-7.299 6.576,-8.826C6.576,-10.983 5.421,-12.521 3.178,-13.607C0.828,-14.746 -2.591,-15.152 -7.331,-15.152L-19.814,-15.152L-19.814,12.22L-5.907,12.22C-1.317,12.22 2.147,11.598 4.487,10.349C6.829,9.101 7.998,7.094 7.998,4.332C7.998,0.214 5.333,-2.085 0,-2.932M-12.118,-13.342C-12.118,-13.342 -5.966,-13.347 -5.736,-13.342C-1.807,-13.237 1.308,-12.136 1.379,-8.642C1.456,-4.875 -1.715,-3.912 -5.725,-3.866C-6.049,-3.862 -12.128,-3.871 -12.128,-3.871L-12.118,-13.342ZM-5.907,10.41L-12.097,10.41L-12.135,-2.063C-12.135,-2.063 -5.577,-2.058 -5.414,-2.053C-0.319,-1.987 2.626,-0.349 2.682,4.025C2.768,10.87 -5.707,10.395 -5.907,10.41" style="fill:rgb(0,117,153);fill-rule:nonzero;"/>
        </g>
        <g transform="matrix(0,-2.666667,-2.666667,0,1169.719437,815.920491)">
            <path d="M-11.956,11.956L11.956,11.956" style="fill:none;fill-rule:nonzero;stroke:rgb(35,31,32);stroke-width:1px;"/>
        </g>
    </g>
</svg>
